name analog
datacolumns 19
datarows 49
range 0.1835 0.20750000000000002
endheader
time	ground_force_vx	ground_force_vy	ground_force_vz	ground_force_px	ground_force_py	ground_force_pz	l_ground_force_vx	l_ground_force_vy	l_ground_force_vz	l_ground_force_px	l_ground_force_py	l_ground_force_pz	ground_torque_x	ground_torque_y	ground_torque_z	l_ground_torque_x	l_ground_torque_y	l_ground_torque_z
0.1835	-0.0	-0.0	-0.0	-18.899639129638672	6.722686290740967	-752.5750122070312	-0.0	-0.0	-0.0	-34.748374938964844	16.194534301757812	75.9076919555664	-0.0	-0.0	-0.0	-0.0	-0.0	-0.0
0.184	-0.0	-0.0	-0.0	-19.53710174560547	7.257847785949707	-748.8434448242188	-0.0	-0.0	-0.0	-34.63283157348633	16.258235931396484	76.00547790527344	-0.0	-0.0	-0.0	-0.0	-0.0	-0.0
0.1845	-0.0	-0.0	-0.0	-20.047372817993164	8.123351097106934	-747.3817138671875	-0.0	-0.0	-0.0	-34.77311325073242	16.040977478027344	74.90409851074219	-0.0	-0.0	-0.0	-0.0	-0.0	-0.0
0.185	-0.0	-0.0	-0.0	-20.454071044921875	8.543004989624023	-743.8504638671875	-0.0	-0.0	-0.0	-34.74848175048828	15.873472213745115	75.103759765625	-0.0	-0.0	-0.0	-0.0	-0.0	-0.0
0.1855	-0.0	-0.0	-0.0	-20.91368293762207	9.930536270141602	-738.4503173828125	-0.0	-0.0	-0.0	-34.939632415771484	16.206804275512695	76.30815887451172	-0.0	-0.0	-0.0	-0.0	-0.0	-0.0
0.186	-0.0	-0.0	-0.0	-21.015220642089844	11.293414115905762	-737.5919189453125	-0.0	-0.0	-0.0	-35.016929626464844	16.30889129638672	75.30301666259766	-0.0	-0.0	-0.0	-0.0	-0.0	-0.0
0.1865	-0.0	-0.0	-0.0	-21.42273712158203	13.649154663085938	-732.3018188476562	-0.0	-0.0	-0.0	-34.796783447265625	16.3865909576416	74.55369567871094	-0.0	-0.0	-0.0	-0.0	-0.0	-0.0
0.187	-0.0	-0.0	-0.0	-21.70245361328125	14.949629783630373	-728.6665649414062	-0.0	-0.0	-0.0	-35.15718078613281	16.206586837768555	75.15077209472656	-0.0	-0.0	-0.0	-0.0	-0.0	-0.0
0.1875	-0.0	-0.0	-0.0	-22.582334518432617	15.460434913635254	-725.2789306640625	-0.0	-0.0	-0.0	-34.97826385498047	16.15553855895996	75.60682678222656	-0.0	-0.0	-0.0	-0.0	-0.0	-0.0
0.188	-0.0	-0.0	-0.0	-22.57965087890625	15.267881393432615	-720.9931030273438	-0.0	-0.0	-0.0	-34.81117630004883	16.116464614868164	76.46115112304688	-0.0	-0.0	-0.0	-0.0	-0.0	-0.0
0.1885	-0.0	-0.0	-0.0	-21.871315002441406	15.17883014678955	-718.4625854492188	-0.0	-0.0	-0.0	-34.799346923828125	16.03829002380371	75.75945281982422	-0.0	-0.0	-0.0	-0.0	-0.0	-0.0
0.189	-0.0	-0.0	-0.0	-21.006196975708008	14.415404319763184	-716.5551147460938	-0.0	-0.0	-0.0	-34.87333297729492	16.14366340637207	74.7528076171875	-0.0	-0.0	-0.0	-0.0	-0.0	-0.0
0.1895	-0.0	-0.0	-0.0	-19.920854568481445	13.993473052978516	-716.0489501953125	-0.0	-0.0	-0.0	-35.056095123291016	16.284503936767578	75.56175994873047	-0.0	-0.0	-0.0	-0.0	-0.0	-0.0
0.19	-0.0	-0.0	-0.0	-18.49007606506348	13.28042984008789	-714.1901245117188	-0.0	-0.0	-0.0	-34.83828353881836	15.963785171508787	75.30195617675781	-0.0	-0.0	-0.0	-0.0	-0.0	-0.0
0.1905	-0.0	-0.0	-0.0	-17.306838989257812	13.218368530273438	-713.3624267578125	-0.0	-0.0	-0.0	-34.65940475463867	16.272930145263672	74.7528076171875	-0.0	-0.0	-0.0	-0.0	-0.0	-0.0
0.191	-0.0	-0.0	-0.0	-16.368335723876953	12.648931503295898	-713.132080078125	-0.0	-0.0	-0.0	-34.56998443603516	16.206031799316406	75.7159652709961	-0.0	-0.0	-0.0	-0.0	-0.0	-0.0
0.1915	-0.0	-0.0	-0.0	-15.293829917907717	11.974934577941896	-708.6036376953125	-0.0	-0.0	-0.0	-34.8774299621582	16.436620712280273	76.35440826416016	-0.0	-0.0	-0.0	-0.0	-0.0	-0.0
0.192	-0.0	-0.0	-0.0	-14.339954376220703	12.156110763549805	-705.11865234375	-0.0	-0.0	-0.0	-35.10162734985352	16.245201110839844	75.4547119140625	-0.0	-0.0	-0.0	-0.0	-0.0	-0.0
0.1925	-0.0	-0.0	-0.0	-13.331274032592772	12.517129898071287	-698.7440185546875	-0.0	-0.0	-0.0	-35.1405143737793	15.913335800170898	75.56413269042969	-0.0	-0.0	-0.0	-0.0	-0.0	-0.0
0.193	-0.0	-0.0	-0.0	-11.798446655273438	12.500895500183104	-693.356689453125	-0.0	-0.0	-0.0	-34.698726654052734	16.23960304260254	76.28797912597656	-0.0	-0.0	-0.0	-0.0	-0.0	-0.0
0.1935	-0.0	-0.0	-0.0	-10.470524787902832	11.559266090393066	-684.6375732421875	-0.0	-0.0	-0.0	-34.68180084228516	16.042842864990234	75.8056640625	-0.0	-0.0	-0.0	-0.0	-0.0	-0.0
0.194	-0.0	-0.0	-0.0	-8.69787883758545	9.76536750793457	-677.6194458007812	-0.0	-0.0	-0.0	-34.838565826416016	16.16617202758789	74.59894561767578	-0.0	-0.0	-0.0	-0.0	-0.0	-0.0
0.1945	-0.0	-0.0	-0.0	-6.021864891052246	7.96622371673584	-669.14404296875	-0.0	-0.0	-0.0	-34.88428497314453	16.03660774230957	75.84859466552734	-0.0	-0.0	-0.0	-0.0	-0.0	-0.0
0.195	-0.0	-0.0	-0.0	-3.378938913345337	6.3783488273620605	-661.7716064453125	-0.0	-0.0	-0.0	-34.97826385498047	16.021242141723633	76.61894989013672	-0.0	-0.0	-0.0	-0.0	-0.0	-0.0
0.1955	-0.0	-0.0	-0.0	-0.719841480255127	4.506572723388672	-654.0457763671875	-0.0	-0.0	-0.0	-35.017581939697266	16.172779083251953	76.35330963134766	-0.0	-0.0	-0.0	-0.0	-0.0	-0.0
0.196	-0.0	-0.0	-0.0	2.056330680847168	1.4889320135116575	-649.2997436523438	-0.0	-0.0	-0.0	-34.827964782714844	16.061357498168945	76.43743133544922	-0.0	-0.0	-0.0	-0.0	-0.0	-0.0
0.1965	-0.0	-0.0	-0.0	3.2224459648132324	-2.043436050415039	-643.3388061523438	-0.0	-0.0	-0.0	-34.62042999267578	16.22338104248047	75.0617904663086	-0.0	-0.0	-0.0	-0.0	-0.0	-0.0
0.197	-0.0	-0.0	-0.0	4.99578857421875	-4.9061279296875	-636.612548828125	-0.0	-0.0	-0.0	-35.17842483520508	16.273820877075195	75.49638366699219	-0.0	-0.0	-0.0	-0.0	-0.0	-0.0
0.1975	-0.0	-0.0	-0.0	6.808528900146484	-6.8666582107543945	-632.149658203125	-0.0	-0.0	-0.0	-34.638790130615234	15.98552131652832	75.0730972290039	-0.0	-0.0	-0.0	-0.0	-0.0	-0.0
0.198	-0.0	-0.0	-0.0	7.839876174926758	-9.957308769226074	-627.2053833007812	-0.0	-0.0	-0.0	-34.838836669921875	16.15481948852539	76.35264587402344	-0.0	-0.0	-0.0	-0.0	-0.0	-0.0
0.1985	-0.0	-0.0	-0.0	8.364641189575195	-13.440534591674805	-628.1514892578125	-0.0	-0.0	-0.0	-34.90960693359375	16.12548828125	76.31168365478516	-0.0	-0.0	-0.0	-0.0	-0.0	-0.0
0.199	-0.0	-0.0	-0.0	7.900379180908203	-16.767004013061523	-630.072998046875	-0.0	-0.0	-0.0	-35.07804870605469	16.255098342895508	75.84617614746094	-0.0	-0.0	-0.0	-0.0	-0.0	-0.0
0.1995	-0.0	-0.0	-0.0	4.785974025726318	-19.550922393798828	-629.6784057617188	-0.0	-0.0	-0.0	-34.93867874145508	15.884817123413086	74.90808868408203	-0.0	-0.0	-0.0	-0.0	-0.0	-0.0
0.2	-0.0	-0.0	-0.0	1.325622320175171	-21.3726806640625	-634.114013671875	-0.0	-0.0	-0.0	-34.77891159057617	15.824378967285156	75.61014556884766	-0.0	-0.0	-0.0	-0.0	-0.0	-0.0
0.2005	-0.0	-0.0	-0.0	-2.111917734146118	-23.74990463256836	-641.0216064453125	-0.0	-0.0	-0.0	-34.878662109375	16.204734802246094	75.68987274169922	-0.0	-0.0	-0.0	-0.0	-0.0	-0.0
0.201	-0.0	-0.0	-0.0	-4.837869167327881	-26.007116317749023	-646.8753662109375	-0.0	-0.0	-0.0	-35.1074104309082	15.83465576171875	76.89806365966797	-0.0	-0.0	-0.0	-0.0	-0.0	-0.0
0.2015	-0.0	-0.0	-0.0	-5.332259654998779	-26.98615837097168	-652.1266479492188	-0.0	-0.0	-0.0	-34.95823669433594	15.954504013061523	76.4682846069336	-0.0	-0.0	-0.0	-0.0	-0.0	-0.0
0.202	-0.0	-0.0	-0.0	-5.064778804779053	-27.36303329467773	-657.0382690429688	-0.0	-0.0	-0.0	-34.77946090698242	16.03458595275879	75.76667785644531	-0.0	-0.0	-0.0	-0.0	-0.0	-0.0
0.2025	-0.0	-0.0	-0.0	-3.20154356956482	-26.55083465576172	-663.8612670898438	-0.0	-0.0	-0.0	-34.799346923828125	16.224292755126953	75.02637481689453	-0.0	-0.0	-0.0	-0.0	-0.0	-0.0
0.203	-0.0	-0.0	-0.0	-1.575819730758667	-24.332599639892575	-669.2760009765625	-0.0	-0.0	-0.0	-34.84898376464844	16.01459503173828	75.61093139648438	-0.0	-0.0	-0.0	-0.0	-0.0	-0.0
0.20350000000000001	-0.0	-0.0	-0.0	-0.009904533624649	-21.44080352783203	-671.5127563476562	-0.0	-0.0	-0.0	-34.809085845947266	16.184736251831055	75.8821029663086	-0.0	-0.0	-0.0	-0.0	-0.0	-0.0
0.20400000000000001	-0.0	-0.0	-0.0	0.019678384065628	-18.96511459350586	-672.650634765625	-0.0	-0.0	-0.0	-34.70988464355469	16.004873275756836	75.103759765625	-0.0	-0.0	-0.0	-0.0	-0.0	-0.0
0.20450000000000002	-0.0	-0.0	-0.0	-0.8322463631629944	-15.449461936950684	-673.7078247070312	-0.0	-0.0	-0.0	-34.7690315246582	16.23468589782715	73.4679183959961	-0.0	-0.0	-0.0	-0.0	-0.0	-0.0
0.20500000000000002	-0.0	-0.0	-0.0	-1.4671190977096558	-11.310776710510254	-670.9265747070312	-0.0	-0.0	-0.0	-34.83930587768555	16.024185180664062	74.79021453857422	-0.0	-0.0	-0.0	-0.0	-0.0	-0.0
0.20550000000000002	-0.0	-0.0	-0.0	-2.2989511489868164	-7.538839817047119	-670.7699584960938	-0.0	-0.0	-0.0	-35.0088005065918	15.974367141723633	76.73871612548828	-0.0	-0.0	-0.0	-0.0	-0.0	-0.0
0.20600000000000002	-0.0	-0.0	-0.0	-3.0139589309692383	-4.427748203277588	-670.8082885742188	-0.0	-0.0	-0.0	-34.66986846923828	16.20401382446289	75.49169158935547	-0.0	-0.0	-0.0	-0.0	-0.0	-0.0
0.20650000000000002	-0.0	-0.0	-0.0	-3.56842041015625	-1.5169627666473389	-666.8037109375	-0.0	-0.0	-0.0	-35.19723129272461	16.225412368774414	77.08901977539062	-0.0	-0.0	-0.0	-0.0	-0.0	-0.0
0.20700000000000002	-0.0	-0.0	-0.0	-3.450863838195801	1.3159912824630735	-666.5336303710938	-0.0	-0.0	-0.0	-34.85798645019531	16.113893508911133	75.4547119140625	-0.0	-0.0	-0.0	-0.0	-0.0	-0.0
0.20750000000000002	-0.0	-0.0	-0.0	-4.89717960357666	4.107078075408936	-669.787109375	-0.0	-0.0	-0.0	-34.83946228027344	15.64543914794922	75.99923706054688	-0.0	-0.0	-0.0	-0.0	-0.0	-0.0
